M48
METRIC,TZ
T1C1.016
%
G90
G05
T1
X94000Y-80500
X94000Y-83040
X94000Y-85580
X94000Y-88120
X94000Y-90660
X94000Y-93200
X94000Y-95740
X94000Y-98280
X94000Y-100820
X94000Y-103360
X94000Y-105900
X94000Y-108440
X94000Y-110980
X94000Y-113520
X94000Y-116060
X94000Y-118600
X94000Y-121140
X94000Y-123680
X94000Y-126220
X94000Y-128760
X94000Y-131300
X94000Y-133840
X94000Y-136380
X94000Y-138920
X105960Y-78500
X108500Y-78500
X119000Y-80580
X119000Y-83120
X119000Y-85660
X119000Y-88200
X119000Y-90740
X119000Y-93280
X119000Y-95820
X119000Y-98360
X119000Y-100900
X119000Y-103440
X119000Y-105980
X119000Y-108520
X119000Y-111060
X119000Y-113600
X119000Y-116140
X119000Y-118680
X119000Y-121220
X119000Y-123760
X119000Y-126300
X119000Y-128840
X119000Y-131380
X119000Y-133920
X119000Y-136460
X119000Y-139000
T0
M30
