M48
METRIC,TZ
T1C0.800
T2C0.800
T3C0.900
T4C1.001
T5C1.016
T6C1.191
T7C1.200
T8C3.000
T9C3.200
%
G90
G05
T1
X35500Y-78250
X43750Y-26490
X43750Y-29030
X43750Y-31570
X43750Y-34110
X43750Y-36650
X43750Y-39190
X43750Y-41730
X43750Y-44270
X43750Y-46810
X43750Y-49350
X43750Y-51890
X43750Y-54430
X43750Y-56970
X43750Y-59510
X43750Y-62050
X43750Y-64590
X43750Y-67130
X43750Y-69670
X43750Y-72210
X43750Y-74750
X58990Y-26490
X58990Y-29030
X58990Y-31570
X58990Y-34110
X58990Y-36650
X58990Y-39190
X58990Y-41730
X58990Y-44270
X58990Y-46810
X58990Y-49350
X58990Y-51890
X58990Y-54430
X58990Y-56970
X58990Y-59510
X58990Y-62050
X58990Y-64590
X58990Y-67130
X58990Y-69670
X58990Y-72210
X58990Y-74750
X74250Y-34750
X74250Y-42370
X76790Y-34750
X76790Y-42370
X79330Y-34750
X79330Y-42370
X81870Y-34750
X81870Y-42370
T2
X33000Y-78250
X65000Y-36250
X65000Y-41132
T3
X49000Y-46750
X54000Y-46750
T4
X54090Y-78750
X64000Y-30500
X64250Y-78750
X66250Y-51344
X66250Y-54688
X66250Y-58031
X66250Y-61375
X66250Y-64719
X66250Y-68063
X66250Y-71406
X66250Y-74750
X74160Y-30500
X76410Y-51344
X76410Y-54688
X76410Y-58031
X76410Y-61375
X76410Y-64719
X76410Y-68063
X76410Y-71406
X76410Y-74750
X79000Y-28500
X81540Y-28500
X87250Y-32250
X87250Y-42410
T5
X25500Y-26490
X25500Y-29030
X25500Y-31570
X25500Y-34110
X25500Y-36650
X25500Y-39190
X25500Y-41730
X25500Y-44270
X25500Y-46810
X25500Y-49350
X25500Y-51890
X25500Y-54430
X25500Y-56970
X25500Y-59510
X25500Y-62050
X25500Y-64590
X25500Y-67130
X25500Y-69670
X25500Y-72210
X25500Y-74750
X63300Y-20000
X65840Y-20000
X68380Y-20000
X70920Y-20000
X73460Y-20000
X76000Y-20000
T6
X80500Y-60500
X80500Y-62790
X80500Y-65080
X80500Y-67370
X80500Y-69660
X83040Y-61645
X83040Y-63935
X83040Y-66225
X83040Y-68515
X85580Y-60500
X85580Y-62790
X85580Y-65080
X85580Y-67370
X85580Y-69660
T7
X83040Y-59355
T8
X18500Y-19500
X18500Y-82500
X91500Y-19500
X91500Y-82500
T9
X83040Y-52331
X83040Y-77329
T0
M30
