M48
METRIC,TZ
T1C0.800
T2C0.800
T3C1.001
T4C1.016
T5C1.191
T6C1.200
T7C3.200
%
G90
G05
T1
X170500Y-147750
X178750Y-95990
X178750Y-98530
X178750Y-101070
X178750Y-103610
X178750Y-106150
X178750Y-108690
X178750Y-111230
X178750Y-113770
X178750Y-116310
X178750Y-118850
X178750Y-121390
X178750Y-123930
X178750Y-126470
X178750Y-129010
X178750Y-131550
X178750Y-134090
X178750Y-136630
X178750Y-139170
X178750Y-141710
X178750Y-144250
X193990Y-95990
X193990Y-98530
X193990Y-101070
X193990Y-103610
X193990Y-106150
X193990Y-108690
X193990Y-111230
X193990Y-113770
X193990Y-116310
X193990Y-118850
X193990Y-121390
X193990Y-123930
X193990Y-126470
X193990Y-129010
X193990Y-131550
X193990Y-134090
X193990Y-136630
X193990Y-139170
X193990Y-141710
X193990Y-144250
X209250Y-104250
X209250Y-111870
X211790Y-104250
X211790Y-111870
X214330Y-104250
X214330Y-111870
X216870Y-104250
X216870Y-111870
T2
X168000Y-147750
X200000Y-105750
X200000Y-110632
T3
X189090Y-148250
X199000Y-100000
X199250Y-148250
X201250Y-120844
X201250Y-124188
X201250Y-127531
X201250Y-130875
X201250Y-134219
X201250Y-137563
X201250Y-140906
X201250Y-144250
X209160Y-100000
X211410Y-120844
X211410Y-124188
X211410Y-127531
X211410Y-130875
X211410Y-134219
X211410Y-137563
X211410Y-140906
X211410Y-144250
X214000Y-98000
X216540Y-98000
X222250Y-101750
X222250Y-111910
T4
X160500Y-95990
X160500Y-98530
X160500Y-101070
X160500Y-103610
X160500Y-106150
X160500Y-108690
X160500Y-111230
X160500Y-113770
X160500Y-116310
X160500Y-118850
X160500Y-121390
X160500Y-123930
X160500Y-126470
X160500Y-129010
X160500Y-131550
X160500Y-134090
X160500Y-136630
X160500Y-139170
X160500Y-141710
X160500Y-144250
X198300Y-89500
X200840Y-89500
X203380Y-89500
X205920Y-89500
X208460Y-89500
X211000Y-89500
T5
X215500Y-130000
X215500Y-132290
X215500Y-134580
X215500Y-136870
X215500Y-139160
X218040Y-131145
X218040Y-133435
X218040Y-135725
X218040Y-138015
X220580Y-130000
X220580Y-132290
X220580Y-134580
X220580Y-136870
X220580Y-139160
T6
X218040Y-128855
T7
X218040Y-121831
X218040Y-146829
T0
M30
